<svg width="866" height="185" viewBox="0 0 866 185" fill="none" xmlns="http://www.w3.org/2000/svg">
<path d="M854.634 144.5C851.571 144.5 849.04 143.5 847.04 141.5C845.04 139.438 844.04 136.875 844.04 133.812V12.5C844.04 9.4375 845.04 6.875 847.04 4.8125C849.04 2.75 851.571 1.71875 854.634 1.71875C857.759 1.71875 860.321 2.75 862.321 4.8125C864.321 6.875 865.321 9.4375 865.321 12.5V133.719C865.321 136.781 864.321 139.344 862.321 141.406C860.321 143.469 857.759 144.5 854.634 144.5Z" fill="#02254B"/>
<path d="M698.96 143.188L701.397 116C709.21 116 716.46 115.688 723.147 115.062C729.835 114.438 736.241 113.469 742.366 112.156C748.491 110.844 754.554 109.156 760.554 107.094C765.616 105.344 769.679 103.844 772.741 102.594C775.866 101.281 778.554 100.156 780.804 99.2188C783.116 98.2188 785.585 97.3438 788.21 96.5938L787.647 100.625C782.647 99.375 778.085 97.875 773.96 96.125C769.835 94.375 765.741 92.625 761.679 90.875C757.679 89.125 753.21 87.6875 748.272 86.5625C743.397 85.375 737.616 84.7812 730.929 84.7812C728.241 84.7812 725.835 84.9688 723.71 85.3438C721.585 85.6562 719.835 85.8438 718.46 85.9062C715.397 86.0312 712.866 85.0938 710.866 83.0938C708.929 81.0938 707.96 78.7188 707.96 75.9688C707.96 72.8438 708.866 70.2812 710.679 68.2812C712.491 66.2812 714.585 64.8125 716.96 63.875C719.147 62.9375 721.71 62.25 724.647 61.8125C727.585 61.3125 730.616 61.0625 733.741 61.0625C740.366 61.0625 746.304 61.7188 751.554 63.0312C756.866 64.3438 761.804 66 766.366 68C770.991 70 775.554 72.0312 780.054 74.0938C784.616 76.1562 789.397 77.9688 794.397 79.5312C799.46 81.0312 805.085 81.9062 811.272 82.1562L813.522 82.25C817.46 82.5 820.647 83.75 823.085 86C825.585 88.25 826.835 91.25 826.835 95C826.835 98.6875 825.585 101.656 823.085 103.906C820.585 106.156 817.397 107.438 813.522 107.75L811.835 107.844C809.085 107.969 806.085 108.5 802.835 109.438C799.647 110.375 795.522 112.062 790.46 114.5C785.46 116.938 778.929 120.531 770.866 125.281C763.554 129.594 756.304 133.062 749.116 135.688C741.929 138.312 734.272 140.219 726.147 141.406C718.085 142.594 709.022 143.188 698.96 143.188ZM701.397 116C702.585 116 703.491 116.344 704.116 117.031C704.741 117.719 704.991 118.688 704.866 119.938L702.804 139.25C702.491 141.875 701.21 143.188 698.96 143.188C697.71 143.188 696.804 142.844 696.241 142.156C695.616 141.406 695.366 140.438 695.491 139.25L697.554 119.938C697.804 117.312 699.085 116 701.397 116Z" fill="#02254B"/>
<path d="M777.755 175.062C774.505 175.062 771.693 173.875 769.318 171.5C767.005 169.188 765.849 166.375 765.849 163.062C765.849 159.812 767.005 157.031 769.318 154.719C771.693 152.406 774.505 151.25 777.755 151.25C781.005 151.25 783.786 152.406 786.099 154.719C788.474 157.031 789.661 159.812 789.661 163.062C789.661 166.375 788.474 169.188 786.099 171.5C783.786 173.875 781.005 175.062 777.755 175.062Z" fill="#02254B"/>
<path d="M644.488 143.188L646.925 116C650.988 116 654.394 115.531 657.144 114.594C659.956 113.594 662.081 111.812 663.519 109.25C664.956 106.625 665.675 102.875 665.675 98V83.375C665.675 80.375 666.644 77.875 668.581 75.875C670.581 73.8125 673.113 72.7812 676.175 72.7812C679.175 72.7812 681.675 73.7812 683.675 75.7812C685.675 77.7812 686.675 80.3125 686.675 83.375V98C686.675 102.875 687.363 106.625 688.738 109.25C690.175 111.812 692.269 113.594 695.019 114.594C697.831 115.531 701.238 116 705.238 116L702.8 143.188C697.55 143.188 692.706 142.406 688.269 140.844C683.831 139.219 680.113 136.469 677.113 132.594C674.113 128.656 672.175 123.25 671.3 116.375L676.831 116.469C676.019 123.531 674.269 129 671.581 132.875C668.956 136.75 665.394 139.438 660.894 140.938C656.394 142.438 650.925 143.188 644.488 143.188ZM702.8 143.188C701.613 143.188 700.706 142.844 700.081 142.156C699.456 141.406 699.206 140.438 699.331 139.25L701.394 119.938C701.769 117.312 703.05 116 705.238 116C706.488 116 707.425 116.375 708.05 117.125C708.675 117.812 708.894 118.75 708.706 119.938L706.644 139.25C706.394 141.875 705.113 143.188 702.8 143.188ZM644.488 143.188C643.238 143.188 642.331 142.844 641.769 142.156C641.144 141.406 640.894 140.438 641.019 139.25L643.081 119.938C643.394 117.312 644.675 116 646.925 116C648.113 116 649.019 116.375 649.644 117.125C650.269 117.812 650.519 118.75 650.394 119.938L648.331 139.25C648.019 141.875 646.738 143.188 644.488 143.188Z" fill="#02254B"/>
<path d="M665.157 180.219C662.095 180.219 659.47 179.125 657.282 176.938C655.095 174.75 654.001 172.125 654.001 169.062C654.001 166 655.095 163.375 657.282 161.188C659.47 159 662.095 157.906 665.157 157.906C668.282 157.906 670.907 159 673.032 161.188C675.22 163.375 676.314 166 676.314 169.062C676.314 172.125 675.22 174.75 673.032 176.938C670.907 179.125 668.282 180.219 665.157 180.219ZM690.939 180.219C687.876 180.219 685.251 179.125 683.064 176.938C680.876 174.75 679.782 172.125 679.782 169.062C679.782 166 680.876 163.375 683.064 161.188C685.251 159 687.876 157.906 690.939 157.906C694.001 157.906 696.626 159 698.814 161.188C701.001 163.375 702.095 166 702.095 169.062C702.095 172.125 701.001 174.75 698.814 176.938C696.626 179.125 694.001 180.219 690.939 180.219Z" fill="#02254B"/>
<path d="M543.328 143.188C527.328 143.188 514.39 141.531 504.515 138.219C494.64 134.844 487.421 129.75 482.859 122.938C478.359 116.062 476.109 107.406 476.109 96.9688C476.109 94.5312 476.265 91.5625 476.578 88.0625C476.953 84.5625 477.453 81 478.078 77.375C478.703 73.6875 479.484 70.5 480.421 67.8125C481.296 65.25 482.515 63.125 484.078 61.4375C485.703 59.6875 488.015 58.8125 491.015 58.8125C493.39 58.8125 495.515 59.625 497.39 61.25C499.265 62.875 500.203 65.1562 500.203 68.0938C500.203 69.2812 499.921 70.9062 499.359 72.9688C498.859 74.9688 498.328 77.3438 497.765 80.0938C497.265 82.7812 497.015 85.75 497.015 89C497.015 95.5625 498.64 100.844 501.89 104.844C505.14 108.781 510.421 111.625 517.734 113.375C525.046 115.125 534.703 116 546.703 116H566.578C577.203 116 585.765 115.5 592.265 114.5C598.828 113.5 603.609 111.719 606.609 109.156C609.609 106.531 611.109 102.844 611.109 98.0938V83.375C611.109 80.3125 612.109 77.7812 614.109 75.7812C616.109 73.7812 618.64 72.7812 621.703 72.7812C624.703 72.7812 627.171 73.7812 629.109 75.7812C631.109 77.7812 632.109 80.3125 632.109 83.375V98.0938C632.109 102.969 632.859 106.688 634.359 109.25C635.859 111.812 637.984 113.594 640.734 114.594C643.546 115.531 646.89 116 650.765 116L648.328 143.188C643.39 143.188 638.64 142.375 634.078 140.75C629.578 139.062 625.765 136.281 622.64 132.406C619.578 128.469 617.64 123.125 616.828 116.375L622.171 120.031C620.671 126.031 617.734 130.719 613.359 134.094C608.984 137.469 602.859 139.844 594.984 141.219C587.171 142.531 577.359 143.188 565.546 143.188H543.328ZM648.328 143.188C647.14 143.188 646.234 142.844 645.609 142.156C644.984 141.406 644.734 140.438 644.859 139.25L646.921 119.938C647.296 117.312 648.578 116 650.765 116C651.953 116 652.859 116.375 653.484 117.125C654.171 117.812 654.421 118.75 654.234 119.938L652.171 139.25C651.921 141.875 650.64 143.188 648.328 143.188ZM555.984 181.062C552.734 181.062 549.921 179.875 547.546 177.5C545.234 175.188 544.078 172.375 544.078 169.062C544.078 165.812 545.234 163.031 547.546 160.719C549.921 158.406 552.734 157.25 555.984 157.25C559.234 157.25 562.015 158.406 564.328 160.719C566.703 163.031 567.89 165.812 567.89 169.062C567.89 172.375 566.703 175.188 564.328 177.5C562.015 179.875 559.234 181.062 555.984 181.062Z" fill="#02254B"/>
<path d="M333.042 143.188L335.48 116C339.355 116 342.417 115.312 344.667 113.938C346.98 112.562 348.949 110.562 350.574 107.938C352.261 105.25 354.167 101.938 356.292 98L360.98 89.1875C365.105 81.625 369.761 75.75 374.949 71.5625C380.136 67.3125 386.292 65.1875 393.417 65.1875C399.792 65.1875 405.417 67.125 410.292 71C415.167 74.875 418.98 79.9375 421.73 86.1875C424.542 92.4375 425.949 99.0625 425.949 106.062C425.949 117.562 422.917 126.625 416.855 133.25C410.792 139.875 402.292 143.188 391.355 143.188C386.042 143.188 380.886 142.406 375.886 140.844C370.949 139.281 366.48 137.094 362.48 134.281C358.542 131.469 355.386 128.188 353.011 124.438L361.449 103.156C363.886 106.031 366.824 108.562 370.261 110.75C373.699 112.875 377.386 114.562 381.324 115.812C385.324 117 389.324 117.594 393.324 117.594C397.449 117.594 400.605 116.719 402.792 114.969C405.042 113.219 406.167 110.406 406.167 106.531C406.167 103.719 405.511 101 404.199 98.375C402.949 95.75 401.199 93.5938 398.949 91.9062C396.699 90.1562 394.042 89.2812 390.98 89.2812C385.792 89.2812 381.542 91.2812 378.23 95.2812C374.98 99.2812 371.667 105.031 368.292 112.531L364.261 118.906C361.699 124.469 359.199 129.062 356.761 132.688C354.324 136.312 351.261 138.969 347.574 140.656C343.949 142.344 339.105 143.188 333.042 143.188ZM335.48 116C336.667 116 337.574 116.344 338.199 117.031C338.824 117.719 339.074 118.688 338.949 119.938L336.886 139.25C336.574 141.875 335.292 143.188 333.042 143.188C331.792 143.188 330.886 142.844 330.324 142.156C329.699 141.406 329.449 140.438 329.574 139.25L331.636 119.938C331.886 117.312 333.167 116 335.48 116Z" fill="#02254B"/>
<path d="M276.65 143.188L279.088 116C283.15 116 286.556 115.531 289.306 114.594C292.119 113.594 294.244 111.812 295.681 109.25C297.119 106.625 297.838 102.875 297.838 98V83.375C297.838 80.375 298.806 77.875 300.744 75.875C302.744 73.8125 305.275 72.7812 308.338 72.7812C311.338 72.7812 313.838 73.7812 315.838 75.7812C317.838 77.7812 318.838 80.3125 318.838 83.375V98C318.838 102.875 319.525 106.625 320.9 109.25C322.338 111.812 324.431 113.594 327.181 114.594C329.994 115.531 333.4 116 337.4 116L334.963 143.188C329.713 143.188 324.869 142.406 320.431 140.844C315.994 139.219 312.275 136.469 309.275 132.594C306.275 128.656 304.338 123.25 303.463 116.375L308.994 116.469C308.181 123.531 306.431 129 303.744 132.875C301.119 136.75 297.556 139.438 293.056 140.938C288.556 142.438 283.088 143.188 276.65 143.188ZM334.963 143.188C333.775 143.188 332.869 142.844 332.244 142.156C331.619 141.406 331.369 140.438 331.494 139.25L333.556 119.938C333.931 117.312 335.213 116 337.4 116C338.65 116 339.588 116.375 340.213 117.125C340.838 117.812 341.056 118.75 340.869 119.938L338.806 139.25C338.556 141.875 337.275 143.188 334.963 143.188ZM276.65 143.188C275.4 143.188 274.494 142.844 273.931 142.156C273.306 141.406 273.056 140.438 273.181 139.25L275.244 119.938C275.556 117.312 276.838 116 279.088 116C280.275 116 281.181 116.375 281.806 117.125C282.431 117.812 282.681 118.75 282.556 119.938L280.494 139.25C280.181 141.875 278.9 143.188 276.65 143.188Z" fill="#02254B"/>
<path d="M310.07 54.1562C306.82 54.1562 304.008 53 301.633 50.6875C299.32 48.3125 298.164 45.5 298.164 42.25C298.164 39 299.32 36.2188 301.633 33.9062C304.008 31.5312 306.82 30.3438 310.07 30.3438C313.32 30.3438 316.101 31.5312 318.414 33.9062C320.789 36.2188 321.976 39 321.976 42.25C321.976 45.5 320.789 48.3125 318.414 50.6875C316.101 53 313.32 54.1562 310.07 54.1562Z" fill="#02254B"/>
<path d="M222.177 143.188L224.615 116C228.677 116 232.084 115.531 234.834 114.594C237.646 113.594 239.771 111.812 241.209 109.25C242.646 106.625 243.365 102.875 243.365 98V83.375C243.365 80.375 244.334 77.875 246.271 75.875C248.271 73.8125 250.802 72.7812 253.865 72.7812C256.865 72.7812 259.365 73.7812 261.365 75.7812C263.365 77.7812 264.365 80.3125 264.365 83.375V98C264.365 102.875 265.052 106.625 266.427 109.25C267.865 111.812 269.959 113.594 272.709 114.594C275.521 115.531 278.927 116 282.927 116L280.49 143.188C275.24 143.188 270.396 142.406 265.959 140.844C261.521 139.219 257.802 136.469 254.802 132.594C251.802 128.656 249.865 123.25 248.99 116.375L254.521 116.469C253.709 123.531 251.959 129 249.271 132.875C246.646 136.75 243.084 139.438 238.584 140.938C234.084 142.438 228.615 143.188 222.177 143.188ZM280.49 143.188C279.302 143.188 278.396 142.844 277.771 142.156C277.146 141.406 276.896 140.438 277.021 139.25L279.084 119.938C279.459 117.312 280.74 116 282.927 116C284.177 116 285.115 116.375 285.74 117.125C286.365 117.812 286.584 118.75 286.396 119.938L284.334 139.25C284.084 141.875 282.802 143.188 280.49 143.188ZM222.177 143.188C220.927 143.188 220.021 142.844 219.459 142.156C218.834 141.406 218.584 140.438 218.709 139.25L220.771 119.938C221.084 117.312 222.365 116 224.615 116C225.802 116 226.709 116.375 227.334 117.125C227.959 117.812 228.209 118.75 228.084 119.938L226.021 139.25C225.709 141.875 224.427 143.188 222.177 143.188Z" fill="#02254B"/>
<path d="M242.848 180.219C239.785 180.219 237.16 179.125 234.973 176.938C232.785 174.75 231.691 172.125 231.691 169.062C231.691 166 232.785 163.375 234.973 161.188C237.16 159 239.785 157.906 242.848 157.906C245.973 157.906 248.598 159 250.723 161.188C252.91 163.375 254.004 166 254.004 169.062C254.004 172.125 252.91 174.75 250.723 176.938C248.598 179.125 245.973 180.219 242.848 180.219ZM268.629 180.219C265.566 180.219 262.941 179.125 260.754 176.938C258.566 174.75 257.473 172.125 257.473 169.062C257.473 166 258.566 163.375 260.754 161.188C262.941 159 265.566 157.906 268.629 157.906C271.691 157.906 274.316 159 276.504 161.188C278.691 163.375 279.785 166 279.785 169.062C279.785 172.125 278.691 174.75 276.504 176.938C274.316 179.125 271.691 180.219 268.629 180.219Z" fill="#02254B"/>
<path d="M153.08 184.344C141.892 184.344 132.392 182.312 124.58 178.25C116.767 174.188 110.799 168.375 106.674 160.812C102.549 153.25 100.486 144.25 100.486 133.812C100.486 128.188 100.83 122.875 101.517 117.875C102.205 112.812 103.236 108.094 104.611 103.719C105.424 101.094 106.705 99 108.455 97.4375C110.205 95.875 112.424 95.0938 115.111 95.0938C117.674 95.0938 119.83 96.0312 121.58 97.9062C123.33 99.7812 124.205 102.031 124.205 104.656C124.205 105.844 123.986 107.594 123.549 109.906C123.111 112.156 122.642 114.844 122.142 117.969C121.705 121.031 121.486 124.469 121.486 128.281C121.486 138.031 124.205 145.375 129.642 150.312C135.08 155.25 143.611 157.719 155.236 157.719C161.424 157.719 167.017 156.875 172.017 155.188C177.017 153.5 180.986 150.875 183.924 147.312C186.924 143.75 188.424 139.188 188.424 133.625C188.424 129.25 188.205 125.125 187.767 121.25C187.33 117.375 186.861 113.844 186.361 110.656C185.861 107.469 185.392 104.688 184.955 102.312C184.58 99.9375 184.392 98.0938 184.392 96.7812C184.392 93.7812 185.455 91.2188 187.58 89.0938C189.705 86.9688 192.299 85.9062 195.361 85.9062C198.236 85.9062 200.611 86.8125 202.486 88.625C204.361 90.4375 205.549 92.5938 206.049 95.0938L206.424 96.875C207.299 101.438 207.861 105.562 208.111 109.25C208.361 112.875 208.455 116.438 208.392 119.938C208.392 123.375 208.392 127.031 208.392 130.906C208.392 142.906 206.142 152.875 201.642 160.812C197.205 168.75 190.861 174.656 182.611 178.531C174.361 182.406 164.517 184.344 153.08 184.344ZM226.017 143.188C218.83 143.188 212.986 141.844 208.486 139.156C203.986 136.469 200.33 132.031 197.517 125.844C194.767 119.594 192.486 111.188 190.674 100.625L206.424 96.875C207.299 101.875 208.392 105.781 209.705 108.594C211.08 111.344 213.174 113.281 215.986 114.406C218.861 115.469 223.017 116 228.455 116L226.017 143.188ZM226.017 143.188C224.83 143.188 223.924 142.844 223.299 142.156C222.674 141.406 222.424 140.438 222.549 139.25L224.611 119.938C224.986 117.312 226.267 116 228.455 116C229.642 116 230.549 116.375 231.174 117.125C231.799 117.812 232.049 118.75 231.924 119.938L229.861 139.25C229.611 141.875 228.33 143.188 226.017 143.188ZM155.142 72.3125C151.892 72.3125 149.08 71.1562 146.705 68.8438C144.392 66.4688 143.236 63.6562 143.236 60.4062C143.236 57.1562 144.392 54.375 146.705 52.0625C149.08 49.6875 151.892 48.5 155.142 48.5C158.392 48.5 161.174 49.6875 163.486 52.0625C165.861 54.375 167.049 57.1562 167.049 60.4062C167.049 63.6562 165.861 66.4688 163.486 68.8438C161.174 71.1562 158.392 72.3125 155.142 72.3125Z" fill="#02254B"/>
<path d="M49.625 110.75C46.6875 110.75 44.25 109.844 42.3125 108.031C40.375 106.219 39.4062 103.969 39.4062 101.281V99.7812C39.4062 97.1562 38.875 94.8438 37.8125 92.8438C36.75 90.8438 34.9688 88.875 32.4688 86.9375C30.0312 84.9375 26.7188 82.625 22.5312 80C14.6562 74.9375 9.09375 69.5312 5.84375 63.7812C2.59375 57.9688 0.96875 51.1562 0.96875 43.3438C0.96875 37.7188 2 32.3438 4.0625 27.2188C6.1875 22.0938 9.1875 17.5312 13.0625 13.5312C16.9375 9.53125 21.5625 6.375 26.9375 4.0625C32.375 1.6875 38.375 0.5 44.9375 0.5C55.9375 0.5 65.1875 3.75 72.6875 10.25C80.25 16.75 85.1562 25.5625 87.4062 36.6875C88.0938 40.0625 87.5625 42.9062 85.8125 45.2188C84.0625 47.4688 81.4375 48.5938 77.9375 48.5938C75.375 48.5938 73.4062 47.9688 72.0312 46.7188C70.7188 45.4062 69.5312 43.5938 68.4688 41.2812C66.6562 36.0312 63.6875 32.1875 59.5625 29.75C55.5 27.25 50.7812 26 45.4062 26C40.9688 26 36.9688 26.8438 33.4062 28.5312C29.8438 30.1562 27.0312 32.4062 24.9688 35.2812C22.9062 38.0938 21.875 41.3438 21.875 45.0312C21.875 49.2812 23.4375 53.0625 26.5625 56.375C29.75 59.625 35.1562 63.7188 42.7812 68.6562C47.1562 71.5312 50.5938 74.3438 53.0938 77.0938C55.6562 79.8438 57.4375 82.7812 58.4375 85.9062C59.5 89.0312 60.0312 92.625 60.0312 96.6875V101.469C60.0312 104.219 59.0312 106.469 57.0312 108.219C55.0312 109.906 52.5625 110.75 49.625 110.75ZM48.125 149.656C44.375 149.656 41.125 148.344 38.375 145.719C35.6875 143.094 34.3438 139.906 34.3438 136.156C34.3438 132.469 35.6875 129.344 38.375 126.781C41.125 124.219 44.375 122.938 48.125 122.938C51.9375 122.938 55.1875 124.219 57.875 126.781C60.5625 129.344 61.9062 132.469 61.9062 136.156C61.9062 139.906 60.5625 143.094 57.875 145.719C55.1875 148.344 51.9375 149.656 48.125 149.656Z" fill="#02254B"/>
</svg>
